<svg width="28" height="22" viewBox="0 0 28 22" fill="none" xmlns="http://www.w3.org/2000/svg">
<path opacity="0.3" d="M6.21 21.315C3.9 21.315 2.29 20.4517 1.38 18.725C0.47 16.9983 0.015 14.3033 0.015 10.64C0.015 7.09333 0.516667 4.43333 1.52 2.66C2.54667 0.886666 4.16833 -8.34465e-07 6.385 -8.34465e-07C8.60167 -8.34465e-07 10.1883 0.804999 11.145 2.415C12.125 4.00167 12.615 6.46333 12.615 9.8C12.615 13.7433 12.1367 16.6483 11.18 18.515C10.2233 20.3817 8.56667 21.315 6.21 21.315ZM6.28 18.76C7.49333 18.76 8.35667 18.06 8.87 16.66C9.40667 15.2367 9.675 12.9383 9.675 9.765C9.675 7.26833 9.44167 5.43667 8.975 4.27C8.50833 3.08 7.69167 2.485 6.525 2.485C5.24167 2.485 4.34333 3.185 3.83 4.585C3.31667 5.985 3.06 8.07333 3.06 10.85C3.06 12.81 3.15333 14.3617 3.34 15.505C3.55 16.6483 3.88833 17.4767 4.355 17.99C4.82167 18.5033 5.46333 18.76 6.28 18.76ZM15.1339 21C15.0406 20.7433 14.9939 20.4517 14.9939 20.125C14.9939 19.6583 15.0406 19.2967 15.1339 19.04C15.2506 18.76 15.4956 18.2933 15.8689 17.64C16.3822 16.7767 16.9422 15.9483 17.5489 15.155C18.1789 14.3383 18.9372 13.405 19.8239 12.355C21.2239 10.7217 22.2506 9.38 22.9039 8.33C23.5572 7.28 23.8839 6.20667 23.8839 5.11C23.8839 3.5 22.9856 2.695 21.1889 2.695C20.2556 2.695 19.3106 2.81167 18.3539 3.045C17.3972 3.27833 16.6272 3.57 16.0439 3.92C15.8106 3.38333 15.6939 2.695 15.6939 1.855C15.6939 1.575 15.9739 1.295 16.5339 1.015C17.1172 0.711665 17.8872 0.466665 18.8439 0.28C19.8006 0.0933327 20.8156 -8.34465e-07 21.8889 -8.34465e-07C23.8256 -8.34465e-07 25.1672 0.396666 25.9139 1.19C26.6839 1.96 27.0689 3.15 27.0689 4.76C27.0689 6.18333 26.6839 7.525 25.9139 8.785C25.1672 10.045 24.0239 11.585 22.4839 13.405C20.8039 15.4117 19.5556 17.0567 18.7389 18.34H23.4639C24.2339 18.34 25.0506 18.305 25.9139 18.235C26.7772 18.165 27.3372 18.1183 27.5939 18.095C27.5939 19.2383 27.5589 20.0083 27.4889 20.405C27.4189 20.8017 27.2556 21 26.9989 21H15.1339Z" fill="#041133"/>
</svg>
