<svg width="28" height="23" viewBox="0 0 28 23" fill="none" xmlns="http://www.w3.org/2000/svg">
<path d="M6.21 22.315C3.9 22.315 2.29 21.4517 1.38 19.725C0.47 17.9983 0.015 15.3033 0.015 11.64C0.015 8.09333 0.516667 5.43333 1.52 3.66C2.54667 1.88667 4.16833 0.999999 6.385 0.999999C8.60167 0.999999 10.1883 1.805 11.145 3.415C12.125 5.00167 12.615 7.46333 12.615 10.8C12.615 14.7433 12.1367 17.6483 11.18 19.515C10.2233 21.3817 8.56667 22.315 6.21 22.315ZM6.28 19.76C7.49333 19.76 8.35667 19.06 8.87 17.66C9.40667 16.2367 9.675 13.9383 9.675 10.765C9.675 8.26833 9.44167 6.43667 8.975 5.27C8.50833 4.08 7.69167 3.485 6.525 3.485C5.24167 3.485 4.34333 4.185 3.83 5.585C3.31667 6.985 3.06 9.07333 3.06 11.85C3.06 13.81 3.15333 15.3617 3.34 16.505C3.55 17.6483 3.88833 18.4767 4.355 18.99C4.82167 19.5033 5.46333 19.76 6.28 19.76ZM22.2039 17.415H15.8689C15.2622 16.8083 14.9589 15.98 14.9589 14.93C14.9589 14.3467 15.3906 13.075 16.2539 11.115C17.1406 9.155 18.1556 7.20667 19.2989 5.27C20.4422 3.33333 21.4339 2.00333 22.2739 1.28C22.6706 0.953333 23.0906 0.79 23.5339 0.79C24.0939 0.79 24.6306 0.918333 25.1439 1.175L25.0389 14.79C25.6922 14.79 26.2522 14.7783 26.7189 14.755C27.1856 14.7317 27.4889 14.7083 27.6289 14.685C27.6522 14.7083 27.6756 14.79 27.6989 14.93C27.7456 15.07 27.7689 15.2567 27.7689 15.49C27.7689 16.05 27.6872 16.5167 27.5239 16.89C27.3839 17.24 27.1506 17.415 26.8239 17.415H25.0389V21.09C25.0389 21.4167 24.9922 21.6383 24.8989 21.755C24.8289 21.8717 24.6189 21.9417 24.2689 21.965C23.9422 21.9883 23.2539 22 22.2039 22V17.415ZM22.2039 14.79L22.6239 4.675C21.7139 5.725 20.7106 7.28833 19.6139 9.365C18.5172 11.4417 17.7822 13.25 17.4089 14.79H22.2039Z" fill="#6783FE"/>
</svg>
