<svg width="180" height="40" viewBox="0 0 180 40" fill="none" xmlns="http://www.w3.org/2000/svg">
<rect x="27" y="10" width="150" height="30" rx="3" fill="#FF785F"/>
<path d="M53.6436 22.7197C53.6436 22.1911 53.4499 21.7718 53.0625 21.4619C52.6797 21.1475 52.1396 20.9902 51.4424 20.9902C50.859 20.9902 50.3691 21.152 49.9727 21.4756C49.5807 21.7946 49.3848 22.1911 49.3848 22.665H48.0723C48.0723 22.1364 48.2158 21.6624 48.5029 21.2432C48.7946 20.8239 49.2002 20.498 49.7197 20.2656C50.2393 20.0286 50.8135 19.9102 51.4424 19.9102C52.5544 19.9102 53.418 20.1608 54.0332 20.6621C54.6484 21.1589 54.9561 21.8516 54.9561 22.7402C54.9561 23.2005 54.8148 23.6198 54.5322 23.998C54.2497 24.3763 53.8555 24.6748 53.3496 24.8936C54.5208 25.2855 55.1064 26.0625 55.1064 27.2246C55.1064 28.1178 54.7738 28.8265 54.1084 29.3506C53.443 29.8747 52.5544 30.1367 51.4424 30.1367C50.7816 30.1367 50.18 30.0205 49.6377 29.7881C49.0999 29.5511 48.6807 29.2161 48.3799 28.7832C48.0791 28.3503 47.9287 27.8353 47.9287 27.2383H49.2412C49.2412 27.7624 49.4486 28.1999 49.8633 28.5508C50.278 28.8971 50.8044 29.0703 51.4424 29.0703C52.1579 29.0703 52.7275 28.904 53.1514 28.5713C53.5798 28.2386 53.7939 27.7988 53.7939 27.252C53.7939 26.0853 53.0716 25.4906 51.627 25.4678H50.3965V24.3877H51.6201C52.2855 24.374 52.7891 24.2236 53.1309 23.9365C53.4727 23.6494 53.6436 23.2438 53.6436 22.7197ZM61.2178 30C61.1449 29.8542 61.0856 29.5944 61.04 29.2207C60.4521 29.8314 59.7503 30.1367 58.9346 30.1367C58.2054 30.1367 57.6061 29.9316 57.1367 29.5215C56.6719 29.1068 56.4395 28.5827 56.4395 27.9492C56.4395 27.179 56.7311 26.582 57.3145 26.1582C57.9023 25.7298 58.7272 25.5156 59.7891 25.5156H61.0195V24.9346C61.0195 24.4925 60.8874 24.1416 60.623 23.8818C60.3587 23.6175 59.9691 23.4854 59.4541 23.4854C59.0029 23.4854 58.6247 23.5993 58.3193 23.8271C58.014 24.055 57.8613 24.3307 57.8613 24.6543H56.5898C56.5898 24.2852 56.7197 23.9297 56.9795 23.5879C57.2438 23.2415 57.5993 22.9681 58.0459 22.7676C58.4971 22.5671 58.9915 22.4668 59.5293 22.4668C60.3815 22.4668 61.0492 22.681 61.5322 23.1094C62.0153 23.5332 62.266 24.1188 62.2842 24.8662V28.2705C62.2842 28.9495 62.3708 29.4896 62.5439 29.8906V30H61.2178ZM59.1191 29.0361C59.5156 29.0361 59.8916 28.9336 60.2471 28.7285C60.6025 28.5234 60.86 28.2568 61.0195 27.9287V26.4111H60.0283C58.4788 26.4111 57.7041 26.8646 57.7041 27.7715C57.7041 28.168 57.8363 28.4779 58.1006 28.7012C58.3649 28.9245 58.7044 29.0361 59.1191 29.0361ZM66.5703 26.8486H65.6475V30H64.376V22.6035H65.6475V25.7344H66.4746L68.9629 22.6035H70.4941L67.5684 26.1582L70.7402 30H69.1338L66.5703 26.8486ZM76.3936 30C76.3206 29.8542 76.2614 29.5944 76.2158 29.2207C75.6279 29.8314 74.9261 30.1367 74.1104 30.1367C73.3812 30.1367 72.7819 29.9316 72.3125 29.5215C71.8477 29.1068 71.6152 28.5827 71.6152 27.9492C71.6152 27.179 71.9069 26.582 72.4902 26.1582C73.0781 25.7298 73.903 25.5156 74.9648 25.5156H76.1953V24.9346C76.1953 24.4925 76.0632 24.1416 75.7988 23.8818C75.5345 23.6175 75.1449 23.4854 74.6299 23.4854C74.1787 23.4854 73.8005 23.5993 73.4951 23.8271C73.1898 24.055 73.0371 24.3307 73.0371 24.6543H71.7656C71.7656 24.2852 71.8955 23.9297 72.1553 23.5879C72.4196 23.2415 72.7751 22.9681 73.2217 22.7676C73.6729 22.5671 74.1673 22.4668 74.7051 22.4668C75.5573 22.4668 76.2249 22.681 76.708 23.1094C77.1911 23.5332 77.4417 24.1188 77.46 24.8662V28.2705C77.46 28.9495 77.5465 29.4896 77.7197 29.8906V30H76.3936ZM74.2949 29.0361C74.6914 29.0361 75.0674 28.9336 75.4229 28.7285C75.7783 28.5234 76.0358 28.2568 76.1953 27.9287V26.4111H75.2041C73.6546 26.4111 72.8799 26.8646 72.8799 27.7715C72.8799 28.168 73.012 28.4779 73.2764 28.7012C73.5407 28.9245 73.8802 29.0361 74.2949 29.0361ZM83.5098 24.627C83.5098 24.2806 83.3776 24.0072 83.1133 23.8066C82.849 23.6016 82.4867 23.499 82.0264 23.499C81.5798 23.499 81.2061 23.6152 80.9053 23.8477C80.609 24.0801 80.4609 24.3535 80.4609 24.668H79.2031C79.2031 24.0254 79.472 23.499 80.0098 23.0889C80.5475 22.6787 81.2197 22.4736 82.0264 22.4736C82.8923 22.4736 83.5667 22.6605 84.0498 23.0342C84.5329 23.4033 84.7744 23.932 84.7744 24.6201C84.7744 24.9528 84.6742 25.2581 84.4736 25.5361C84.2731 25.8141 83.9883 26.0352 83.6191 26.1992C84.4805 26.4909 84.9111 27.0651 84.9111 27.9219C84.9111 28.6009 84.6491 29.1387 84.125 29.5352C83.6009 29.9316 82.9014 30.1299 82.0264 30.1299C81.1742 30.1299 80.4701 29.9225 79.9141 29.5078C79.3626 29.0885 79.0869 28.5234 79.0869 27.8125H80.3447C80.3447 28.1725 80.5042 28.4824 80.8232 28.7422C81.1468 28.9974 81.5479 29.125 82.0264 29.125C82.5094 29.125 82.8991 29.0133 83.1953 28.79C83.4915 28.5667 83.6396 28.2773 83.6396 27.9219C83.6396 27.5072 83.5143 27.2109 83.2637 27.0332C83.0176 26.8509 82.6325 26.7598 82.1084 26.7598H80.8438V25.6934H82.2178C83.0791 25.6706 83.5098 25.3151 83.5098 24.627ZM91.1182 30C91.0452 29.8542 90.986 29.5944 90.9404 29.2207C90.3525 29.8314 89.6507 30.1367 88.835 30.1367C88.1058 30.1367 87.5065 29.9316 87.0371 29.5215C86.5723 29.1068 86.3398 28.5827 86.3398 27.9492C86.3398 27.179 86.6315 26.582 87.2148 26.1582C87.8027 25.7298 88.6276 25.5156 89.6895 25.5156H90.9199V24.9346C90.9199 24.4925 90.7878 24.1416 90.5234 23.8818C90.2591 23.6175 89.8695 23.4854 89.3545 23.4854C88.9033 23.4854 88.5251 23.5993 88.2197 23.8271C87.9144 24.055 87.7617 24.3307 87.7617 24.6543H86.4902C86.4902 24.2852 86.6201 23.9297 86.8799 23.5879C87.1442 23.2415 87.4997 22.9681 87.9463 22.7676C88.3975 22.5671 88.8919 22.4668 89.4297 22.4668C90.2819 22.4668 90.9495 22.681 91.4326 23.1094C91.9157 23.5332 92.1663 24.1188 92.1846 24.8662V28.2705C92.1846 28.9495 92.2712 29.4896 92.4443 29.8906V30H91.1182ZM89.0195 29.0361C89.416 29.0361 89.792 28.9336 90.1475 28.7285C90.5029 28.5234 90.7604 28.2568 90.9199 27.9287V26.4111H89.9287C88.3792 26.4111 87.6045 26.8646 87.6045 27.7715C87.6045 28.168 87.7367 28.4779 88.001 28.7012C88.2653 28.9245 88.6048 29.0361 89.0195 29.0361ZM99.5537 23.6289H97.0723V30H95.8076V23.6289H93.374V22.6035H99.5537V23.6289ZM102.165 25.1533H104.086C104.924 25.1624 105.588 25.3812 106.075 25.8096C106.563 26.238 106.807 26.819 106.807 27.5527C106.807 28.291 106.556 28.8835 106.055 29.3301C105.553 29.7767 104.879 30 104.031 30H100.9V22.6035H102.165V25.1533ZM102.165 26.1855V28.9678H104.045C104.519 28.9678 104.886 28.847 105.146 28.6055C105.405 28.3594 105.535 28.0244 105.535 27.6006C105.535 27.1904 105.408 26.8555 105.152 26.5957C104.902 26.3314 104.549 26.1947 104.093 26.1855H102.165ZM115.926 24.627C115.926 24.2806 115.794 24.0072 115.529 23.8066C115.265 23.6016 114.903 23.499 114.442 23.499C113.996 23.499 113.622 23.6152 113.321 23.8477C113.025 24.0801 112.877 24.3535 112.877 24.668H111.619C111.619 24.0254 111.888 23.499 112.426 23.0889C112.964 22.6787 113.636 22.4736 114.442 22.4736C115.308 22.4736 115.983 22.6605 116.466 23.0342C116.949 23.4033 117.19 23.932 117.19 24.6201C117.19 24.9528 117.09 25.2581 116.89 25.5361C116.689 25.8141 116.404 26.0352 116.035 26.1992C116.896 26.4909 117.327 27.0651 117.327 27.9219C117.327 28.6009 117.065 29.1387 116.541 29.5352C116.017 29.9316 115.317 30.1299 114.442 30.1299C113.59 30.1299 112.886 29.9225 112.33 29.5078C111.779 29.0885 111.503 28.5234 111.503 27.8125H112.761C112.761 28.1725 112.92 28.4824 113.239 28.7422C113.563 28.9974 113.964 29.125 114.442 29.125C114.925 29.125 115.315 29.0133 115.611 28.79C115.908 28.5667 116.056 28.2773 116.056 27.9219C116.056 27.5072 115.93 27.2109 115.68 27.0332C115.434 26.8509 115.049 26.7598 114.524 26.7598H113.26V25.6934H114.634C115.495 25.6706 115.926 25.3151 115.926 24.627ZM119.084 30V22.6035H121.969C122.953 22.6035 123.707 22.7767 124.231 23.123C124.76 23.4648 125.024 23.9684 125.024 24.6338C125.024 24.9756 124.922 25.2855 124.717 25.5635C124.512 25.8369 124.209 26.0465 123.808 26.1924C124.254 26.2972 124.612 26.5023 124.881 26.8076C125.154 27.113 125.291 27.4775 125.291 27.9014C125.291 28.5804 125.04 29.0999 124.539 29.46C124.042 29.82 123.338 30 122.427 30H119.084ZM120.349 26.7529V28.9814H122.44C122.969 28.9814 123.363 28.8835 123.623 28.6875C123.887 28.4915 124.02 28.2158 124.02 27.8604C124.02 27.1221 123.477 26.7529 122.393 26.7529H120.349ZM120.349 25.7412H121.982C123.167 25.7412 123.76 25.3949 123.76 24.7021C123.76 24.0094 123.199 23.6517 122.078 23.6289H120.349V25.7412ZM126.631 26.2334C126.631 25.5088 126.772 24.8571 127.055 24.2783C127.342 23.6995 127.738 23.2529 128.244 22.9385C128.755 22.624 129.336 22.4668 129.987 22.4668C130.994 22.4668 131.808 22.8154 132.428 23.5127C133.052 24.21 133.364 25.1374 133.364 26.2949V26.3838C133.364 27.1038 133.225 27.751 132.947 28.3252C132.674 28.8949 132.28 29.3392 131.765 29.6582C131.254 29.9772 130.666 30.1367 130.001 30.1367C128.998 30.1367 128.185 29.7881 127.561 29.0908C126.941 28.3936 126.631 27.4707 126.631 26.3223V26.2334ZM127.902 26.3838C127.902 27.2041 128.091 27.8626 128.47 28.3594C128.853 28.8561 129.363 29.1045 130.001 29.1045C130.644 29.1045 131.154 28.8538 131.532 28.3525C131.91 27.8467 132.1 27.1403 132.1 26.2334C132.1 25.4222 131.906 24.766 131.519 24.2646C131.136 23.7588 130.625 23.5059 129.987 23.5059C129.363 23.5059 128.859 23.7542 128.477 24.251C128.094 24.7477 127.902 25.4587 127.902 26.3838ZM140.993 30H139.729V26.8418H136.331V30H135.06V22.6035H136.331V25.8096H139.729V22.6035H140.993V30ZM142.695 26.2334C142.695 25.5088 142.837 24.8571 143.119 24.2783C143.406 23.6995 143.803 23.2529 144.309 22.9385C144.819 22.624 145.4 22.4668 146.052 22.4668C147.059 22.4668 147.872 22.8154 148.492 23.5127C149.117 24.21 149.429 25.1374 149.429 26.2949V26.3838C149.429 27.1038 149.29 27.751 149.012 28.3252C148.738 28.8949 148.344 29.3392 147.829 29.6582C147.319 29.9772 146.731 30.1367 146.065 30.1367C145.063 30.1367 144.249 29.7881 143.625 29.0908C143.005 28.3936 142.695 27.4707 142.695 26.3223V26.2334ZM143.967 26.3838C143.967 27.2041 144.156 27.8626 144.534 28.3594C144.917 28.8561 145.427 29.1045 146.065 29.1045C146.708 29.1045 147.218 28.8538 147.597 28.3525C147.975 27.8467 148.164 27.1403 148.164 26.2334C148.164 25.4222 147.97 24.766 147.583 24.2646C147.2 23.7588 146.69 23.5059 146.052 23.5059C145.427 23.5059 144.924 23.7542 144.541 24.251C144.158 24.7477 143.967 25.4587 143.967 26.3838ZM153.318 26.8486H152.396V30H151.124V22.6035H152.396V25.7344H153.223L155.711 22.6035H157.242L154.316 26.1582L157.488 30H155.882L153.318 26.8486Z" fill="white"/>
</svg>
