<svg width="28" height="30" viewBox="0 0 28 30" fill="none" xmlns="http://www.w3.org/2000/svg">
<path d="M26.9714 17.985C26.4218 16.4488 25.279 15.1187 23.7616 14.2444C22.6188 13.5824 21.3448 13.2327 20.0834 13.2327C19.6962 13.2327 19.3277 13.2702 18.9656 13.3326C18.9093 13.1515 18.8407 12.9704 18.7657 12.8018L26.4156 8.38676C26.7216 8.21191 26.8277 7.81848 26.6529 7.50625C25.6974 5.85137 23.8615 4.8647 21.7382 4.8647C20.4768 4.8647 19.2029 5.2144 18.0538 5.87635C16.5488 6.74438 15.4185 8.05579 14.8627 9.57327C14.6816 9.5358 14.4943 9.50458 14.3069 9.4796V0.643214C14.3069 0.287261 14.0197 0 13.6637 0C10.5163 0 7.94973 2.97252 7.94973 6.63197C7.94973 8.42423 8.56797 10.0479 9.56089 11.2469C9.42975 11.3843 9.3111 11.5341 9.19869 11.684L1.54882 7.26894C1.39894 7.18152 1.22409 7.16278 1.06172 7.20649C0.899358 7.25021 0.755727 7.35637 0.674545 7.50625C-0.899143 10.2352 0.393529 13.9384 3.55964 15.7681C4.70244 16.4301 5.97638 16.7798 7.23782 16.7798C7.61876 16.7798 7.99345 16.7423 8.35564 16.6798C8.41185 16.8609 8.48054 17.042 8.55548 17.2107L0.905603 21.6257C0.755728 21.7132 0.649566 21.8505 0.605852 22.0129C0.562139 22.1753 0.587118 22.3501 0.6683 22.5C1.62375 24.1549 3.45972 25.1415 5.5892 25.1415C6.85065 25.1415 8.12459 24.7918 9.26738 24.1299C10.7661 23.2619 11.9027 21.9505 12.4585 20.4267C12.6396 20.4704 12.8269 20.5017 13.0143 20.5204V29.3568C13.0143 29.7127 13.3015 30 13.6575 30C16.8049 30 19.3652 27.0275 19.3652 23.368C19.3652 21.632 18.7907 19.9958 17.7541 18.7531C17.879 18.6157 18.0039 18.4721 18.1163 18.3222L25.7661 22.7373C25.866 22.7935 25.9785 22.8247 26.0846 22.8247C26.3094 22.8247 26.5218 22.7061 26.6404 22.5062C27.4272 21.1636 27.5397 19.5587 26.9714 17.985ZM13.6637 19.2777C11.3032 19.2777 9.38603 17.3605 9.38603 15C9.38603 12.6395 11.3032 10.7223 13.6637 10.7223C16.0243 10.7223 17.9414 12.6395 17.9414 15C17.9414 17.3605 16.018 19.2777 13.6637 19.2777ZM18.697 6.98168C19.6462 6.43214 20.6954 6.14488 21.7382 6.14488C23.1496 6.14488 24.386 6.68818 25.1729 7.61241L18.1287 11.6778C17.5979 10.9596 16.8923 10.3789 16.0805 9.98543C16.5363 8.76145 17.4606 7.69983 18.697 6.98168ZM13.0205 1.34263V9.4796C12.1088 9.58576 11.2595 9.91049 10.5351 10.4101C9.73574 9.44213 9.23616 8.11199 9.23616 6.63822C9.23616 3.94671 10.8848 1.71732 13.0205 1.34263ZM7.23782 15.4871C6.20119 15.4871 5.15206 15.1998 4.20285 14.6503C1.87979 13.3077 0.768217 10.766 1.51135 8.73022L8.55548 12.7956C8.26197 13.47 8.09961 14.2194 8.09961 15C8.09961 15.1374 8.10585 15.2748 8.11834 15.4122C7.83108 15.4621 7.54382 15.4871 7.23782 15.4871ZM8.62417 23.0183C7.67496 23.5679 6.62583 23.8551 5.58295 23.8551C4.17163 23.8551 2.92892 23.3181 2.14832 22.3876L9.19245 18.3222C9.7295 19.0404 10.4289 19.6211 11.2407 20.0146C10.7911 21.2386 9.86064 22.3064 8.62417 23.0183ZM14.3069 28.6636V20.5266C15.2187 20.4205 16.068 20.0958 16.7924 19.5962C17.6292 20.6078 18.085 21.9442 18.085 23.368C18.085 26.0533 16.4427 28.2827 14.3069 28.6636ZM25.8098 21.276L18.7657 17.2107C19.0592 16.5362 19.2216 15.7868 19.2216 15.0062C19.2216 14.8689 19.2153 14.7315 19.2029 14.5941C19.4839 14.5441 19.7774 14.5192 20.0771 14.5192C21.1138 14.5192 22.1629 14.8064 23.1183 15.356C24.3735 16.0803 25.3103 17.1669 25.7599 18.4221C26.1158 19.4026 26.1346 20.3955 25.8098 21.276Z" fill="#6783FE"/>
<path d="M13.664 12.296C12.1715 12.296 10.96 13.5075 10.96 15C10.96 15.356 11.2472 15.6432 11.6032 15.6432C11.9591 15.6432 12.2464 15.356 12.2464 15C12.2464 14.2194 12.8834 13.5824 13.664 13.5824C14.0199 13.5824 14.3072 13.2952 14.3072 12.9392C14.3072 12.5833 14.0137 12.296 13.664 12.296Z" fill="#6783FE"/>
</svg>
