<svg width="28" height="30" viewBox="0 0 28 30" fill="none" xmlns="http://www.w3.org/2000/svg">
<path d="M4.84706 14.6647C4.61951 14.4335 4.24974 14.4335 4.0165 14.6647C3.28264 15.4104 2.87305 16.4046 2.87305 17.4682C2.87305 18.526 3.27695 19.5202 4.0165 20.2659C4.13027 20.3815 4.27818 20.4393 4.43178 20.4393C4.57969 20.4393 4.73329 20.3815 4.84706 20.2659C5.07462 20.0347 5.07462 19.659 4.84706 19.422C4.32938 18.896 4.05063 18.2023 4.05063 17.4624C4.05063 16.7225 4.33507 16.0289 4.84706 15.5029C5.07462 15.2717 5.07462 14.896 4.84706 14.6647Z" fill="#6783FE"/>
<path d="M22.9031 14.6647C22.6755 14.896 22.6755 15.2717 22.9031 15.5029C23.4208 16.0289 23.7052 16.7225 23.7052 17.4624C23.7052 18.2023 23.4208 18.896 22.9031 19.422C22.6755 19.6532 22.6755 20.0289 22.9031 20.2659C23.0169 20.3815 23.1648 20.4393 23.3184 20.4393C23.4663 20.4393 23.6199 20.3815 23.7337 20.2659C24.4675 19.5202 24.8771 18.526 24.8771 17.4682C24.8771 16.4104 24.4732 15.4162 23.7337 14.6647C23.5004 14.4335 23.1306 14.4335 22.9031 14.6647Z" fill="#6783FE"/>
<path d="M20.9746 10.5838V7.74566H22.448C22.6699 7.74566 22.8747 7.6185 22.9714 7.41618C23.0681 7.21387 23.051 6.9711 22.9145 6.79191L18.0563 0.236994C17.9482 0.0867052 17.7775 0 17.5898 0H10.1545C9.97248 0 9.79613 0.0867052 9.68804 0.236994L4.8298 6.79191C4.69895 6.9711 4.6762 7.21387 4.77291 7.41618C4.86962 7.6185 5.07442 7.74566 5.29628 7.74566H6.76968V10.5838C3.03782 10.5838 0 13.6705 0 17.4624C0 21.2543 3.03782 24.3468 6.77537 24.3468H7.75384C8.04966 27.5144 10.6836 30 13.875 30C17.0664 30 19.7003 27.5144 19.9962 24.3468H20.9746C24.7122 24.3468 27.75 21.2601 27.75 17.4624C27.75 13.6705 24.7122 10.5838 20.9746 10.5838ZM10.4503 1.19075H17.2997L21.2761 6.55491H6.47386L10.4503 1.19075ZM19.8027 7.74566V14.6127H16.2927V11.1792C16.2927 10.8497 16.0311 10.5838 15.7068 10.5838H12.0318C11.7076 10.5838 11.4459 10.8497 11.4459 11.1792V14.6127H7.93589V7.74566H19.8027ZM15.1265 14.6127H12.6235V11.7746H15.1265V14.6127ZM13.875 28.8092C11.1273 28.8092 8.89729 26.5376 8.89729 23.7514C8.89729 20.9595 11.133 18.6936 13.875 18.6936C16.617 18.6936 18.8527 20.9653 18.8527 23.7514C18.8527 26.5434 16.617 28.8092 13.875 28.8092ZM20.9746 23.1561H19.9962C19.7003 19.9884 17.0664 17.5029 13.875 17.5029C10.6836 17.5029 8.04966 19.9884 7.75384 23.1561H6.77537C3.68635 23.1561 1.17189 20.6012 1.17189 17.4624C1.17189 14.3237 3.68635 11.7688 6.76968 11.7688V15.2023C6.76968 15.5318 7.03137 15.7977 7.35563 15.7977H20.3887C20.7129 15.7977 20.9746 15.5318 20.9746 15.2023V11.7688C24.0637 11.7688 26.5724 14.3237 26.5724 17.4624C26.5724 20.6012 24.0637 23.1561 20.9746 23.1561Z" fill="#6783FE"/>
<path d="M15.172 23.156H13.4767L14.404 21.0693C14.5349 20.7687 14.404 20.4161 14.1082 20.2832C13.8124 20.1502 13.4654 20.2832 13.3345 20.578L12.0318 23.5086C11.9521 23.6936 11.9635 23.9075 12.0716 24.0751C12.1797 24.2427 12.3617 24.3468 12.5608 24.3468H14.2561L13.3288 26.4335C13.198 26.734 13.3288 27.0867 13.619 27.2196C13.6986 27.2543 13.7782 27.2716 13.8579 27.2716C14.0798 27.2716 14.2959 27.1387 14.3926 26.919L15.6954 23.9884C15.775 23.8034 15.7636 23.5895 15.6556 23.4219C15.5588 23.2601 15.3711 23.156 15.172 23.156Z" fill="#6783FE"/>
</svg>
