<svg width="23" height="30" viewBox="0 0 23 30" fill="none" xmlns="http://www.w3.org/2000/svg">
<path d="M11.3629 4.24805C10.0553 4.24805 8.82756 4.75756 7.90061 5.68451C5.99146 7.59366 5.99146 10.706 7.90061 12.6151C8.82756 13.5421 10.0553 14.0516 11.3629 14.0516C12.6704 14.0516 13.9043 13.5421 14.8251 12.6151C15.7521 11.6882 16.2616 10.4604 16.2616 9.1529C16.2616 7.84535 15.7521 6.61146 14.8251 5.69065C13.9043 4.75756 12.6704 4.24805 11.3629 4.24805ZM13.935 11.7189C13.2474 12.4064 12.3328 12.7809 11.3629 12.7809C10.3929 12.7809 9.47827 12.4003 8.79073 11.7189C7.37268 10.3008 7.37268 7.99268 8.79073 6.57463C9.47827 5.88709 10.3929 5.51263 11.3629 5.51263C12.3328 5.51263 13.2474 5.89323 13.935 6.57463C14.6225 7.26217 15.0031 8.17684 15.0031 9.14676C15.0031 10.1228 14.6225 11.0313 13.935 11.7189Z" fill="#6783FE"/>
<path d="M12.1482 7.47083L10.9205 8.69857C10.6749 8.94412 10.6749 9.34314 10.9205 9.58869C11.0433 9.71146 11.209 9.77285 11.3686 9.77285C11.5282 9.77285 11.694 9.71146 11.8167 9.58869L13.0506 8.36094C13.2962 8.11539 13.2962 7.71637 13.0506 7.46469C12.7928 7.22528 12.3938 7.22528 12.1482 7.47083Z" fill="#6783FE"/>
<path d="M14.874 20.7981H7.85739C7.50748 20.7981 7.2251 21.0805 7.2251 21.4304C7.2251 21.7803 7.50748 22.0627 7.85739 22.0627H14.874C15.2239 22.0627 15.5063 21.7803 15.5063 21.4304C15.5063 21.0866 15.2177 20.7981 14.874 20.7981Z" fill="#6783FE"/>
<path d="M17.8514 0H4.87416C2.18539 0 0 2.18539 0 4.87416V20.5525C0 22.6888 1.38122 24.512 3.30264 25.1627V26.4027C3.30264 26.5684 3.37017 26.7281 3.4868 26.8508L4.73296 28.1031V29.3677C4.73296 29.7176 5.01535 30 5.36525 30H7.9558C8.30571 30 8.58809 29.7176 8.58809 29.3677V28.1031L9.83425 26.8508C9.95089 26.7342 10.0184 26.5746 10.0184 26.4027V25.4205H12.7195V26.4027C12.7195 26.5684 12.787 26.7281 12.9036 26.8508L14.1498 28.1031V29.3677C14.1498 29.7176 14.4322 30 14.7821 30H17.3726C17.7225 30 18.0049 29.7176 18.0049 29.3677V28.1031L19.2511 26.8508C19.3677 26.7342 19.4352 26.5746 19.4352 26.4027V25.1627C21.3505 24.5058 22.7379 22.6888 22.7379 20.5525V4.87416C22.7317 2.18539 20.5402 0 17.8514 0ZM8.7477 26.1449L7.50153 27.3972C7.3849 27.5138 7.31737 27.6734 7.31737 27.8392V28.7293H5.99754V27.8392C5.99754 27.6734 5.93002 27.5138 5.81338 27.3972L4.56722 26.1449V25.4266H4.87416H8.75384V26.1449H8.7477ZM18.1645 26.1449L16.9184 27.3972C16.8017 27.5138 16.7342 27.6734 16.7342 27.8392V28.7293H15.4082V27.8392C15.4082 27.6734 15.3407 27.5138 15.2241 27.3972L13.9779 26.1449V25.4266H17.8576H18.1645V26.1449ZM21.4672 20.5525C21.4672 22.5414 19.8465 24.1621 17.8576 24.1621H4.87416C2.88521 24.1621 1.26458 22.5414 1.26458 20.5525V17.3419C1.52241 17.4708 1.72498 17.6734 1.97053 17.9251C2.44936 18.4101 3.05095 19.0178 4.21117 19.0178C5.37139 19.0178 5.96685 18.4101 6.44567 17.9251C6.85697 17.5077 7.15777 17.2069 7.78392 17.2069C8.41007 17.2069 8.71087 17.5077 9.12216 17.9251C9.60098 18.4101 10.2026 19.0178 11.3628 19.0178C12.5169 19.0178 13.1185 18.4101 13.6034 17.9251C14.0147 17.5077 14.3094 17.2069 14.9417 17.2069C15.574 17.2069 15.8686 17.5077 16.2799 17.9251C16.7587 18.4101 17.3603 19.0178 18.5206 19.0178C19.6808 19.0178 20.2762 18.4101 20.7612 17.9251C21.0068 17.6796 21.2093 17.4708 21.4672 17.3419V20.5525ZM21.4672 6.34745H20.1166C19.7667 6.34745 19.4843 6.62983 19.4843 6.97974C19.4843 7.32965 19.7667 7.61203 20.1166 7.61203H21.4672V8.87661H20.1166C19.7667 8.87661 19.4843 9.15899 19.4843 9.5089C19.4843 9.85881 19.7667 10.1412 20.1166 10.1412H21.4672V11.4058H20.1166C19.7667 11.4058 19.4843 11.6882 19.4843 12.0381C19.4843 12.388 19.7667 12.6703 20.1166 12.6703H21.4672V16.016C20.706 16.1878 20.2455 16.6544 19.8588 17.0411C19.4475 17.4586 19.1467 17.7594 18.5206 17.7594C17.8883 17.7594 17.5936 17.4586 17.1823 17.0411C16.7035 16.5562 16.1019 15.9484 14.9417 15.9484C13.7815 15.9484 13.186 16.5562 12.701 17.0411C12.2897 17.4586 11.9951 17.7594 11.3628 17.7594C10.7305 17.7594 10.4359 17.4586 10.0246 17.0411C9.53959 16.5562 8.94414 15.9484 7.78392 15.9484C6.6237 15.9484 6.02824 16.5562 5.54328 17.0411C5.13198 17.4586 4.83118 17.7594 4.20503 17.7594C3.57274 17.7594 3.27808 17.4586 2.86679 17.0411C2.48005 16.6544 2.01964 16.1878 1.25844 16.016V12.6703H2.60896C2.95887 12.6703 3.24125 12.388 3.24125 12.0381C3.24125 11.6882 2.95887 11.4058 2.60896 11.4058H1.25844V10.1412H2.60896C2.95887 10.1412 3.24125 9.85881 3.24125 9.5089C3.24125 9.15899 2.95887 8.87661 2.60896 8.87661H1.25844V7.61203H2.60896C2.95887 7.61203 3.24125 7.32965 3.24125 6.97974C3.24125 6.62983 2.95887 6.34745 2.60896 6.34745H1.25844V4.87416C1.25844 2.88521 2.87907 1.26458 4.86802 1.26458H17.8453C19.8343 1.26458 21.4549 2.88521 21.4549 4.87416V6.34745H21.4672Z" fill="#6783FE"/>
</svg>
