<svg width="24" height="30" viewBox="0 0 24 30" fill="none" xmlns="http://www.w3.org/2000/svg">
<path d="M23.0268 0.132641C22.8623 0.0060852 22.6534 -0.0318815 22.4573 0.0250686L15.2183 2.04996C14.9399 2.12589 14.7437 2.38533 14.7437 2.67641V3.70151H12.2569V1.78419C12.2569 1.42351 11.9658 1.13243 11.6051 1.13243H0.651761C0.291078 1.13243 0 1.42351 0 1.78419C0 2.14487 0.291078 2.43595 0.651761 2.43595H6.35309V3.82806C5.20776 3.86603 2.86648 4.12547 0.949167 5.46696C0.651761 5.67578 0.582156 6.08075 0.790972 6.37183C0.917528 6.55534 1.12002 6.65025 1.32251 6.65025C1.45539 6.65025 1.58194 6.61229 1.69584 6.53003C3.3031 5.40368 5.34697 5.16955 6.35309 5.13159V8.03604C3.28412 9.22566 1.10103 12.206 1.10103 15.6926V29.3417C1.10103 29.7024 1.39211 29.9934 1.75279 29.9934H16.8699C17.2305 29.9934 17.5216 29.7024 17.5216 29.3417V15.699C17.5216 12.2124 15.3385 9.23199 12.2696 8.04237V5.00503H14.7564V6.03013C14.7564 6.32121 14.9525 6.58065 15.231 6.65658L22.4699 8.68147C22.5269 8.70045 22.5838 8.70678 22.6471 8.70678C22.7863 8.70678 22.9255 8.66249 23.0394 8.5739C23.204 8.45367 23.2989 8.25751 23.2989 8.05502V0.651519C23.2862 0.44903 23.1913 0.252869 23.0268 0.132641ZM16.2118 15.699V28.6962H2.39823V15.699C2.39823 11.8897 5.49884 8.78904 9.30816 8.78904C13.1175 8.78904 16.2118 11.8897 16.2118 15.699ZM9.30816 7.48552C8.74499 7.48552 8.18815 7.54247 7.65661 7.65637V2.43595H10.966V7.65637C10.4219 7.54247 9.87134 7.48552 9.30816 7.48552ZM21.9827 7.19444L16.0472 5.53656V3.16997L21.9827 1.50577V7.19444Z" fill="#6783FE"/>
<path d="M3.99268 15.6992C3.99268 16.0599 4.28375 16.351 4.64444 16.351C5.00512 16.351 5.2962 16.0599 5.2962 15.6992C5.2962 13.4845 7.09329 11.6874 9.30801 11.6874C9.66869 11.6874 9.95977 11.3964 9.95977 11.0357C9.95977 10.675 9.66869 10.3839 9.30801 10.3839C6.37825 10.3839 3.99268 12.7695 3.99268 15.6992Z" fill="#6783FE"/>
<path d="M14.3767 25.7224H4.2333C3.87262 25.7224 3.58154 26.0135 3.58154 26.3742C3.58154 26.7349 3.87262 27.0259 4.2333 27.0259H14.3767C14.7374 27.0259 15.0285 26.7349 15.0285 26.3742C15.0285 26.0135 14.7374 25.7224 14.3767 25.7224Z" fill="#6783FE"/>
<path d="M3.58789 23.628C3.58789 23.9886 3.87897 24.2797 4.23965 24.2797H14.3831C14.7438 24.2797 15.0348 23.9886 15.0348 23.628C15.0348 23.2673 14.7438 22.9762 14.3831 22.9762H4.23332C3.87264 22.9762 3.58789 23.2673 3.58789 23.628Z" fill="#6783FE"/>
</svg>
