<svg width="30" height="30" viewBox="0 0 30 30" fill="none" xmlns="http://www.w3.org/2000/svg">
<path d="M15.8384 9.95825C16.8551 9.95825 17.6769 9.12956 17.6769 8.11981C17.6769 7.87608 17.6281 7.64628 17.5446 7.4304L18.6588 6.3162C18.9373 6.03765 18.9373 5.585 18.6588 5.29949C18.3802 5.02094 17.9276 5.02094 17.642 5.29949L16.5278 6.41369C16.312 6.32316 16.0752 6.28138 15.8384 6.28138C15.344 6.28138 14.8844 6.4694 14.5362 6.81759C14.188 7.16578 14 7.62539 14 8.11981C14 8.61424 14.188 9.07385 14.5362 9.42204C14.8844 9.77022 15.351 9.95825 15.8384 9.95825Z" fill="#6783FE"/>
<path d="M29.2896 21.2743H25.8495V19.1643H27.3815C27.7784 19.1643 28.0988 18.8439 28.0988 18.447V17.1448C28.0988 14.9999 26.706 13.1754 24.7771 12.5278C24.7005 11.7339 24.0319 11.1142 23.2241 11.1142C22.4094 11.1142 21.7409 11.7339 21.6712 12.5278C19.7423 13.1754 18.3495 14.9999 18.3495 17.1448V18.447C18.3495 18.8439 18.6698 19.1643 19.0668 19.1643H20.5988V21.2743H15.4247V19.7005C15.4247 19.4428 15.2855 19.2061 15.0696 19.0807L12.8899 17.8203V15.8008C14.0598 15.3969 15.1044 14.7423 15.9679 13.8927C15.9818 13.8857 15.9888 13.8718 16.0027 13.8649C16.0167 13.8579 16.0236 13.844 16.0306 13.83C17.486 12.3607 18.3843 10.3482 18.3843 8.11975C18.3843 5.95402 17.5417 3.91363 16.0097 2.37464C14.4637 0.842615 12.4234 0 10.2507 0C8.08493 0 6.04455 0.842615 4.51252 2.37464C2.98049 3.90667 2.13787 5.94705 2.13787 8.11975C2.13787 10.3412 3.0362 12.3537 4.48466 13.8231C4.49163 13.837 4.50555 13.8509 4.51252 13.8579C4.52645 13.8718 4.54037 13.8788 4.5543 13.8927C5.41084 14.7423 6.46237 15.3969 7.62532 15.8008V17.8203L5.44566 19.0807C5.22282 19.2061 5.08355 19.4428 5.08355 19.7005V21.2743H0.717267C0.320333 21.2743 0 21.6016 0 21.9916V26.7687C0 27.1656 0.320333 27.486 0.717267 27.486H2.25626C2.72283 28.7394 3.92756 29.596 5.30639 29.596H15.1949C16.5807 29.596 17.7785 28.7394 18.2451 27.486H29.2826C29.6796 27.486 29.9999 27.1656 29.9999 26.7687V21.9916C30.0069 21.6016 29.6865 21.2743 29.2896 21.2743ZM19.7771 17.1448C19.7771 15.2506 21.323 13.7047 23.2172 13.7047C25.1183 13.7047 26.6573 15.2506 26.6573 17.1448V17.7297H19.7771V17.1448ZM22.0264 19.1643H24.415V21.2743H22.0264V19.1643ZM6.42059 11.9498C6.14204 11.6713 5.68939 11.6713 5.40388 11.9498L5.04176 12.3119C4.25486 11.337 3.73954 10.1462 3.60027 8.83701H4.10862C4.50555 8.83701 4.82589 8.51668 4.82589 8.11975C4.82589 7.72281 4.50555 7.40248 4.10862 7.40248H3.60723C3.73954 6.12115 4.24093 4.92338 5.04873 3.92756L5.41084 4.28968C5.55012 4.42895 5.73118 4.49859 5.9192 4.49859C6.10026 4.49859 6.28828 4.42895 6.42755 4.28968C6.7061 4.01113 6.7061 3.55848 6.42755 3.27297L6.05847 2.91085C7.06125 2.10306 8.25902 1.60863 9.53339 1.46935V1.98467C9.53339 2.38161 9.85372 2.70194 10.2507 2.70194C10.6476 2.70194 10.9679 2.38161 10.9679 1.98467V1.46935C12.2493 1.60167 13.447 2.10306 14.4428 2.91085L14.0877 3.27297C13.8091 3.55152 13.8091 4.00416 14.0877 4.28968C14.227 4.42895 14.408 4.49859 14.596 4.49859C14.7771 4.49859 14.9651 4.42895 15.1044 4.28968L15.4665 3.92756C16.2743 4.93034 16.7687 6.12811 16.908 7.40248H16.3997C16.0027 7.40248 15.6824 7.72281 15.6824 8.11975C15.6824 8.51668 16.0027 8.83701 16.3997 8.83701H16.908C16.7687 10.1462 16.2465 11.337 15.4665 12.3119L15.1044 11.9498C14.8258 11.6713 14.3732 11.6713 14.0877 11.9498C13.8091 12.2284 13.8091 12.681 14.0877 12.9665L14.4498 13.3286C13.3008 14.2548 11.8454 14.8119 10.2576 14.8119C8.66988 14.8119 7.21446 14.2548 6.06544 13.3286L6.42755 12.9735C6.69914 12.688 6.69914 12.2284 6.42059 11.9498ZM6.51808 20.1113L8.69774 18.8509C8.92058 18.7256 9.05289 18.4888 9.05289 18.2311V16.149C9.44286 16.2047 9.8398 16.2395 10.2437 16.2395C10.6476 16.2395 11.0515 16.2116 11.4415 16.149V18.2311C11.4415 18.4888 11.5738 18.7256 11.7966 18.8509L13.9763 20.1113V21.2743H6.51808V20.1113ZM28.5723 26.0584H17.7088C17.3607 26.0584 17.0612 26.3091 17.0055 26.6503C16.8523 27.5278 16.0933 28.1684 15.2019 28.1684H13.844V26.5737C13.844 26.1768 13.5236 25.8564 13.1267 25.8564C12.7298 25.8564 12.4094 26.1768 12.4094 26.5737V28.1684H10.9749V26.5737C10.9749 26.1768 10.6546 25.8564 10.2576 25.8564C9.86069 25.8564 9.54035 26.1768 9.54035 26.5737V28.1684H8.10582V26.5737C8.10582 26.1768 7.78549 25.8564 7.38855 25.8564C6.99162 25.8564 6.67128 26.1768 6.67128 26.5737V28.1684H5.30639C4.41503 28.1684 3.65598 27.5278 3.50277 26.6503C3.44706 26.3091 3.14762 26.0584 2.79943 26.0584H1.43453V22.7158H28.5723V26.0584Z" fill="#6783FE"/>
</svg>
