<svg width="28" height="22" viewBox="0 0 28 22" fill="none" xmlns="http://www.w3.org/2000/svg">
<path d="M6.21 21.315C3.9 21.315 2.29 20.4517 1.38 18.725C0.47 16.9983 0.015 14.3033 0.015 10.64C0.015 7.09333 0.516667 4.43333 1.52 2.66C2.54667 0.886666 4.16833 -8.34465e-07 6.385 -8.34465e-07C8.60167 -8.34465e-07 10.1883 0.804999 11.145 2.415C12.125 4.00167 12.615 6.46333 12.615 9.8C12.615 13.7433 12.1367 16.6483 11.18 18.515C10.2233 20.3817 8.56667 21.315 6.21 21.315ZM6.28 18.76C7.49333 18.76 8.35667 18.06 8.87 16.66C9.40667 15.2367 9.675 12.9383 9.675 9.765C9.675 7.26833 9.44167 5.43667 8.975 4.27C8.50833 3.08 7.69167 2.485 6.525 2.485C5.24167 2.485 4.34333 3.185 3.83 4.585C3.31667 5.985 3.06 8.07333 3.06 10.85C3.06 12.81 3.15333 14.3617 3.34 15.505C3.55 16.6483 3.88833 17.4767 4.355 17.99C4.82167 18.5033 5.46333 18.76 6.28 18.76ZM15.0289 21C14.9822 20.2533 14.9589 19.6 14.9589 19.04C14.9589 18.7833 15.4722 18.6083 16.4989 18.515C17.5256 18.3983 18.7039 18.34 20.0339 18.34L20.4189 2.905C19.9289 2.92833 19.2172 3.02167 18.2839 3.185C17.3506 3.34833 16.7322 3.465 16.4289 3.535C16.1489 3.06833 16.0089 2.45 16.0089 1.68C16.0089 1.54 16.4639 1.34167 17.3739 1.085C18.2839 0.804999 19.2872 0.559999 20.3839 0.349999C21.4806 0.116666 22.2272 -8.34465e-07 22.6239 -8.34465e-07C22.9972 -8.34465e-07 23.2656 0.0583324 23.4289 0.174999L22.9739 18.34H25.5639C26.0772 18.34 26.5089 18.3283 26.8589 18.305C27.2322 18.2817 27.4772 18.2583 27.5939 18.235C27.5939 19.3317 27.5589 20.0667 27.4889 20.44C27.4422 20.8133 27.2906 21 27.0339 21H15.0289Z" fill="#6783FE"/>
</svg>
