<svg width="28" height="25" viewBox="0 0 28 25" fill="none" xmlns="http://www.w3.org/2000/svg">
<path opacity="0.3" d="M6.21 21.315C3.9 21.315 2.29 20.4517 1.38 18.725C0.47 16.9983 0.015 14.3033 0.015 10.64C0.015 7.09333 0.516667 4.43333 1.52 2.66C2.54667 0.886666 4.16833 -8.34465e-07 6.385 -8.34465e-07C8.60167 -8.34465e-07 10.1883 0.804999 11.145 2.415C12.125 4.00167 12.615 6.46333 12.615 9.8C12.615 13.7433 12.1367 16.6483 11.18 18.515C10.2233 20.3817 8.56667 21.315 6.21 21.315ZM6.28 18.76C7.49333 18.76 8.35667 18.06 8.87 16.66C9.40667 15.2367 9.675 12.9383 9.675 9.765C9.675 7.26833 9.44167 5.43667 8.975 4.27C8.50833 3.08 7.69167 2.485 6.525 2.485C5.24167 2.485 4.34333 3.185 3.83 4.585C3.31667 5.985 3.06 8.07333 3.06 10.85C3.06 12.81 3.15333 14.3617 3.34 15.505C3.55 16.6483 3.88833 17.4767 4.355 17.99C4.82167 18.5033 5.46333 18.76 6.28 18.76ZM19.2989 24.5C18.0622 24.5 17.1172 24.3367 16.4639 24.01C15.8339 23.6833 15.5189 23.275 15.5189 22.785C15.5189 22.225 15.5772 21.7467 15.6939 21.35C15.8106 20.9767 15.8806 20.755 15.9039 20.685C16.7206 21.4317 17.8639 21.805 19.3339 21.805C20.8506 21.805 22.0289 21.245 22.8689 20.125C23.7322 19.005 24.1639 17.5467 24.1639 15.75C24.1639 14.3733 23.6506 13.4283 22.6239 12.915C21.6206 12.3783 20.2789 12.11 18.5989 12.11L18.5289 10.325C20.0222 9.60167 21.1656 8.77333 21.9589 7.84C22.7756 6.90667 23.1839 5.95 23.1839 4.97C23.1839 4.31667 23.0089 3.78 22.6589 3.36C22.3089 2.91667 21.6439 2.695 20.6639 2.695C18.7972 2.695 17.1872 3.115 15.8339 3.955C15.6006 3.48833 15.4839 2.8 15.4839 1.89C15.4839 1.58667 15.7289 1.295 16.2189 1.015C16.7322 0.711665 17.4439 0.466665 18.3539 0.28C19.2872 0.0933327 20.3489 -8.34465e-07 21.5389 -8.34465e-07C23.2656 -8.34465e-07 24.5022 0.384999 25.2489 1.155C26.0189 1.90167 26.4039 2.89333 26.4039 4.13C26.4039 6.51 25.1206 8.62167 22.5539 10.465C23.9539 10.605 25.0739 11.095 25.9139 11.935C26.7772 12.775 27.2089 14.0233 27.2089 15.68C27.2089 17.57 26.8706 19.18 26.1939 20.51C25.5172 21.8167 24.5839 22.8083 23.3939 23.485C22.2039 24.1617 20.8389 24.5 19.2989 24.5Z" fill="#041133"/>
</svg>
