<svg width="28" height="25" viewBox="0 0 28 25" fill="none" xmlns="http://www.w3.org/2000/svg">
<path opacity="0.3" d="M6.21 21.315C3.9 21.315 2.29 20.4517 1.38 18.725C0.47 16.9983 0.015 14.3033 0.015 10.64C0.015 7.09333 0.516667 4.43333 1.52 2.66C2.54667 0.886666 4.16833 -8.34465e-07 6.385 -8.34465e-07C8.60167 -8.34465e-07 10.1883 0.804999 11.145 2.415C12.125 4.00167 12.615 6.46333 12.615 9.8C12.615 13.7433 12.1367 16.6483 11.18 18.515C10.2233 20.3817 8.56667 21.315 6.21 21.315ZM6.28 18.76C7.49333 18.76 8.35667 18.06 8.87 16.66C9.40667 15.2367 9.675 12.9383 9.675 9.765C9.675 7.26833 9.44167 5.43667 8.975 4.27C8.50833 3.08 7.69167 2.485 6.525 2.485C5.24167 2.485 4.34333 3.185 3.83 4.585C3.31667 5.985 3.06 8.07333 3.06 10.85C3.06 12.81 3.15333 14.3617 3.34 15.505C3.55 16.6483 3.88833 17.4767 4.355 17.99C4.82167 18.5033 5.46333 18.76 6.28 18.76ZM19.1589 24.5C18.2956 24.5 17.5606 24.4183 16.9539 24.255C16.3472 24.0917 15.8922 23.8933 15.5889 23.66C15.3089 23.45 15.1689 23.2517 15.1689 23.065C15.1689 22.1317 15.2739 21.3617 15.4839 20.755C16.3006 21.5017 17.4439 21.875 18.9139 21.875C20.7106 21.875 22.0522 21.1983 22.9389 19.845C23.8256 18.4683 24.2689 16.7767 24.2689 14.77C24.2689 12.88 23.8139 11.585 22.9039 10.885C21.9939 10.185 20.6406 9.835 18.8439 9.835C17.9339 9.835 16.8022 9.98667 15.4489 10.29L16.4639 -8.34465e-07H27.1739C27.1739 0.746666 27.1389 1.295 27.0689 1.645C27.0222 1.97167 26.8939 2.205 26.6839 2.345C26.4739 2.46167 26.1472 2.52 25.7039 2.52C24.6772 2.52 23.4289 2.50833 21.9589 2.485C20.5122 2.43833 19.4856 2.40333 18.8789 2.38L18.3189 7.665C19.1356 7.54833 19.8706 7.49 20.5239 7.49C25.0272 7.49 27.2789 9.73 27.2789 14.21C27.2789 17.43 26.6022 19.95 25.2489 21.77C23.8956 23.59 21.8656 24.5 19.1589 24.5Z" fill="#041133"/>
</svg>
