<svg width="50" height="50" viewBox="0 0 50 50" fill="none" xmlns="http://www.w3.org/2000/svg">
<path d="M7.10981 0.5H33.0223C33.0972 0.5 33.1705 0.530028 33.2247 0.583586C33.2248 0.583754 33.225 0.583922 33.2252 0.584091L43.6123 10.9712L43.6134 10.9723L43.6143 10.9732C43.626 10.9849 43.6382 10.997 43.6536 11.0545C43.6757 11.1373 43.6964 11.2911 43.6964 11.5875V49.069C43.6927 49.0758 43.6872 49.0853 43.6791 49.0973C43.6463 49.146 43.5887 49.2105 43.506 49.2751C43.3383 49.4061 43.1172 49.5 42.8902 49.5H7.10981C6.88277 49.5 6.66164 49.4061 6.49401 49.2751C6.41131 49.2105 6.35373 49.146 6.32092 49.0973C6.31281 49.0853 6.30726 49.0758 6.30356 49.069V1.71964C6.30356 1.2344 6.42842 0.927225 6.57267 0.751445C6.71077 0.583154 6.89351 0.5 7.10981 0.5ZM6.297 49.0551C6.29702 49.0551 6.29716 49.0555 6.2974 49.0562L6.297 49.0551Z" fill="#F4F8FB" stroke="#E0E3F0"/>
<path d="M33.4821 0.134766V10.7142H44.0616L33.4821 0.134766Z" fill="#E0E3F0"/>
<path d="M17.4232 29.7536C17.1125 29.7536 16.8143 29.6527 16.5598 29.4625C15.6303 28.7652 15.5053 27.9893 15.5643 27.4607C15.7268 26.0071 17.5241 24.4857 20.908 22.9357C22.2509 19.9928 23.5286 16.367 24.2902 13.3375C23.3991 11.3982 22.533 8.88213 23.1643 7.40624C23.3857 6.88928 23.6616 6.49285 24.1768 6.32142C24.3803 6.25356 24.8946 6.16785 25.0839 6.16785C25.5339 6.16785 25.9294 6.74731 26.2098 7.10445C26.4732 7.44017 27.0705 8.15178 25.8768 13.1777C27.0803 15.6634 28.7857 18.1955 30.4196 19.9295C31.5902 19.7178 32.5973 19.6098 33.4178 19.6098C34.8161 19.6098 35.6634 19.9357 36.0089 20.6071C36.2946 21.1625 36.1777 21.8116 35.6607 22.5357C35.1634 23.2312 34.4777 23.5991 33.6786 23.5991C32.5928 23.5991 31.3285 22.9134 29.9187 21.5589C27.3857 22.0884 24.4277 23.033 22.0366 24.0786C21.2902 25.6625 20.575 26.9384 19.9089 27.8741C18.9937 29.1553 18.2044 29.7536 17.4232 29.7536ZM19.8 25.1768C17.8919 26.2491 17.1143 27.1303 17.058 27.6268C17.0491 27.7089 17.025 27.925 17.4428 28.2446C17.5759 28.2027 18.3527 27.8482 19.8 25.1768ZM31.9759 21.2107C32.7036 21.7705 32.8812 22.0536 33.3571 22.0536C33.5661 22.0536 34.1616 22.0446 34.4375 21.6598C34.5705 21.4732 34.6223 21.3536 34.6428 21.2893C34.533 21.2312 34.3875 21.1134 33.5937 21.1134C33.1428 21.1143 32.5759 21.1339 31.9759 21.2107ZM25.3062 15.3339C24.6678 17.5428 23.825 19.9277 22.9187 22.0875C24.7848 21.3634 26.8134 20.7312 28.7187 20.2839C27.5134 18.8839 26.3089 17.1357 25.3062 15.3339ZM24.7643 7.77856C24.6768 7.80803 23.5768 9.34731 24.85 10.65C25.6973 8.7616 24.8027 7.76606 24.7643 7.77856Z" fill="#FF785F"/>
<path d="M42.8902 50H7.10981C6.38838 50 5.80356 49.4152 5.80356 48.6937V34.8214H44.1964V48.6937C44.1964 49.4152 43.6116 50 42.8902 50Z" fill="#FF785F"/>
<path d="M15.5223 47.3214H14.0571V38.325H16.6446C17.0268 38.325 17.4053 38.3857 17.7794 38.508C18.1536 38.6303 18.4893 38.8133 18.7866 39.0571C19.0839 39.3008 19.3241 39.5964 19.5071 39.9419C19.6902 40.2875 19.7821 40.6758 19.7821 41.108C19.7821 41.5642 19.7044 41.9767 19.55 42.3473C19.3955 42.7178 19.1794 43.0294 18.9027 43.2812C18.6259 43.533 18.2919 43.7285 17.9018 43.8669C17.5116 44.0053 17.0794 44.0741 16.608 44.0741H15.5214V47.3214H15.5223ZM15.5223 39.4357V43H16.8652C17.0437 43 17.2205 42.9696 17.3964 42.908C17.5714 42.8473 17.7321 42.7473 17.8786 42.6089C18.025 42.4705 18.1428 42.2776 18.2321 42.0294C18.3214 41.7812 18.3661 41.4741 18.3661 41.108C18.3661 40.9616 18.3455 40.7919 18.3053 40.6017C18.2643 40.4107 18.1812 40.2276 18.0553 40.0526C17.9286 39.8776 17.7518 39.7312 17.5241 39.6133C17.2964 39.4955 16.9946 39.4366 16.6205 39.4366H15.5223V39.4357Z" fill="white"/>
<path d="M28.767 42.5732C28.767 43.3133 28.6875 43.9464 28.5286 44.4714C28.3696 44.9964 28.1687 45.4357 27.9241 45.7901C27.6795 46.1446 27.4054 46.4232 27.1 46.6267C26.7946 46.8303 26.5 46.9821 26.2152 47.0848C25.9304 47.1866 25.6696 47.2517 25.4339 47.2803C25.1982 47.3071 25.0232 47.3214 24.9089 47.3214H21.5036V38.325H24.2134C24.9705 38.325 25.6357 38.4455 26.2089 38.6848C26.7821 38.9241 27.2589 39.2446 27.6375 39.6428C28.0161 40.041 28.2982 40.4955 28.4857 41.0035C28.6732 41.5125 28.767 42.0357 28.767 42.5732ZM24.4214 46.2473C25.4143 46.2473 26.1304 45.9303 26.5696 45.2955C27.0089 44.6607 27.2286 43.741 27.2286 42.5366C27.2286 42.1625 27.1839 41.7919 27.0946 41.4258C27.0045 41.0598 26.8321 40.7285 26.5759 40.4312C26.3196 40.1339 25.9714 39.8937 25.5321 39.7107C25.0929 39.5276 24.5232 39.4357 23.8232 39.4357H22.9687V46.2473H24.4214Z" fill="white"/>
<path d="M32.3803 39.4357V42.2678H36.1402V43.2687H32.3803V47.3214H30.8911V38.325H36.5178V39.4357H32.3803Z" fill="white"/>
</svg>
