<svg width="30" height="30" viewBox="0 0 30 30" fill="none" xmlns="http://www.w3.org/2000/svg">
<path d="M12.8783 12.2869C13.3922 13.3327 14.0675 14.2829 14.8922 15.1076C15.7169 15.9323 16.6671 16.6136 17.7129 17.1215C17.952 17.2351 18.2328 17.1932 18.4181 17.002L21.0775 14.3426C21.191 14.2291 21.2568 14.0737 21.2568 13.9064C21.2568 13.745 21.191 13.5897 21.0775 13.4701L16.5237 8.91634C16.4101 8.8028 16.2548 8.73706 16.0874 8.73706C15.9261 8.73706 15.7647 8.8028 15.6512 8.91634L12.9858 11.5817C12.8066 11.7669 12.7587 12.0538 12.8783 12.2869ZM19.7747 13.9064L17.8623 15.8187C17.0914 15.3944 16.3862 14.8626 15.7587 14.241C15.1372 13.6136 14.6054 12.9084 14.1811 12.1375L16.0934 10.2251L19.7747 13.9064Z" fill="#6783FE"/>
<path d="M17.6533 22.3207C17.6533 22.3207 17.6593 22.3207 17.6533 22.3207L29.8206 10.1593C29.9461 10.0338 30.0119 9.85456 29.9999 9.67527C29.7908 7.18324 28.7031 4.83464 26.9402 3.06571C25.1772 1.29679 22.8167 0.209137 20.3246 -2.59164e-05C20.1453 -0.0179542 19.9661 0.0477828 19.8406 0.179257L14.9461 5.07368C14.9521 4.99001 14.9521 4.90635 14.9521 4.81671C14.9521 3.53185 14.4501 2.33065 13.5477 1.42228C13.3087 1.18324 12.9202 1.18324 12.6752 1.42228L9.41825 4.68523C9.41825 4.68523 9.41227 4.69121 9.4063 4.69719C6.32263 7.93025 7.15929 11.749 7.45809 12.747L6.31068 15.3526L0.250919 19.7808C0.107492 19.8884 0.0118747 20.0498 -7.7474e-05 20.2291C-0.0120297 20.4083 0.0537074 20.5816 0.179205 20.7131L9.28678 29.8207C9.41227 29.9462 9.59156 30.0119 9.77084 30C9.95012 29.988 10.1175 29.8924 10.219 29.749L14.6473 23.6892L17.4681 22.4522C17.5398 22.4163 17.6055 22.3745 17.6533 22.3207ZM22.7688 1.80475L18.227 6.34659C17.988 6.58563 17.988 6.97408 18.227 7.2191C18.4661 7.45814 18.8545 7.45814 19.0995 7.2191L23.9641 2.35456C24.5557 2.67726 25.1115 3.06571 25.6194 3.51392L20.5099 8.62348C20.2708 8.86252 20.2708 9.25097 20.5099 9.49599C20.7489 9.73503 21.1374 9.73503 21.3824 9.49599L26.492 4.38643C26.9402 4.8944 27.3286 5.45017 27.6513 6.04181L22.7868 10.9063C22.5477 11.1454 22.5477 11.5338 22.7868 11.7789C23.0258 12.0179 23.4143 12.0179 23.6533 11.7789L28.1951 7.23703C28.47 7.96013 28.6553 8.72507 28.7449 9.50197L17.223 21.0119L13.1055 16.8944L8.98797 12.7769L20.5039 1.25495C21.2868 1.3446 22.0457 1.52985 22.7688 1.80475ZM10.2908 5.54579L13.0756 2.76093C13.4939 3.35854 13.721 4.06969 13.721 4.81671C13.721 5.77288 13.3505 6.6693 12.6752 7.34459L8.45012 11.5697C8.23498 10.2131 8.21705 7.72109 10.2908 5.54579ZM1.55968 20.3486L7.17124 16.243C7.26088 16.1773 7.32662 16.0936 7.37442 15.992L8.31865 13.8466L16.1533 21.6812L14.0079 22.6255C13.9063 22.6673 13.8226 22.739 13.7569 22.8227L9.65132 28.4342L1.55968 20.3486Z" fill="#6783FE"/>
<path d="M9.17324 23.02L6.98002 20.8267C6.74097 20.5877 6.35253 20.5877 6.10751 20.8267C5.86846 21.0658 5.86846 21.4542 6.10751 21.6993L8.30073 23.8925C8.53978 24.1315 8.92822 24.1315 9.16727 23.8925C9.41229 23.6475 9.41229 23.259 9.17324 23.02Z" fill="#6783FE"/>
</svg>
