<svg width="30" height="30" viewBox="0 0 30 30" fill="none" xmlns="http://www.w3.org/2000/svg">
<path d="M25.0074 14.8185C24.8864 14.6657 24.6953 14.5765 24.4979 14.5765C24.3005 14.5765 24.1095 14.6657 23.9885 14.8185C23.5746 15.328 19.9639 19.8748 19.9639 22.1864C19.9639 24.6827 21.9953 26.7205 24.4979 26.7205C27.0006 26.7205 29.032 24.689 29.032 22.1864C29.032 19.8811 25.4213 15.3343 25.0074 14.8185ZM24.4979 25.4086C22.7212 25.4086 21.2757 23.9631 21.2757 22.1864C21.2757 20.951 23.0842 18.1618 24.4979 16.2959C25.9116 18.1618 27.7202 20.951 27.7202 22.1864C27.7202 23.9631 26.2746 25.4086 24.4979 25.4086Z" fill="#6783FE"/>
<path d="M22.5494 12.6024H26.453C26.816 12.6024 27.1089 12.3095 27.1089 11.9465C27.1025 5.35555 21.747 0 15.1624 0C8.57143 0 3.21588 5.35555 3.21588 11.9465V17.1492C1.6557 18.0535 0.604967 19.741 0.604967 21.6706C0.604967 22.976 1.08257 24.1668 1.87858 25.0838C0.725961 26.1409 0 27.6565 0 29.3441C0 29.7071 0.292931 30 0.655912 30H10.9849C11.3479 30 11.6408 29.7071 11.6408 29.3441C11.6408 27.6565 10.9149 26.1409 9.76863 25.0775C10.5646 24.1605 11.0422 22.9696 11.0422 21.6642C11.0422 19.7347 9.99151 18.0471 8.43133 17.1429V11.9401C8.43133 8.22755 11.4498 5.20908 15.1624 5.20908C18.875 5.20908 21.8934 8.22755 21.8934 11.9401C21.8934 12.3095 22.1864 12.6024 22.5494 12.6024ZM10.2844 28.6882H1.3564C1.5156 27.6056 2.06326 26.644 2.8529 25.9563C3.69348 26.5421 4.71874 26.886 5.82042 26.886C6.9221 26.886 7.94736 26.5421 8.78794 25.9563C9.57758 26.644 10.1252 27.6056 10.2844 28.6882ZM9.73042 21.6642C9.73042 23.8166 7.9792 25.5742 5.82042 25.5742C3.66801 25.5742 1.91042 23.823 1.91042 21.6642C1.91042 19.5118 3.66164 17.7542 5.82042 17.7542C7.9792 17.7542 9.73042 19.5118 9.73042 21.6642ZM15.1624 3.90363C10.7238 3.90363 7.11951 7.51433 7.11951 11.9465V16.6079C6.70558 16.4997 6.27255 16.4424 5.82042 16.4424C5.37466 16.4424 4.94163 16.4997 4.5277 16.6079V11.9465C4.5277 6.08151 9.29739 1.31182 15.1624 1.31182C20.8045 1.31182 25.4341 5.73127 25.778 11.2906H23.1798C22.8423 7.15772 19.3717 3.90363 15.1624 3.90363Z" fill="#6783FE"/>
<path d="M3.42627 21.6642C3.42627 22.9888 4.50247 24.065 5.82703 24.065C7.15159 24.065 8.2278 22.9888 8.2278 21.6642C8.2278 20.3396 7.15159 19.2634 5.82703 19.2634C4.49611 19.2698 3.42627 20.3396 3.42627 21.6642ZM6.90961 21.6642C6.90961 22.2628 6.41926 22.7531 5.82067 22.7531C5.22207 22.7531 4.73172 22.2628 4.73172 21.6642C4.73172 21.0656 5.22207 20.5753 5.82067 20.5753C6.41926 20.5753 6.90961 21.0656 6.90961 21.6642Z" fill="#6783FE"/>
</svg>
