<svg width="30" height="30" viewBox="0 0 30 30" fill="none" xmlns="http://www.w3.org/2000/svg">
<path d="M26.6361 0H3.34597C1.50239 0 0 1.50239 0 3.34597V11.4804C0 13.324 1.50239 14.8264 3.34597 14.8264H26.6301C28.4737 14.8264 29.9761 13.324 29.9761 11.4804V3.34597C29.982 1.50239 28.4797 0 26.6361 0ZM5.33919 13.5934L6.78172 10.7801H8.34996V11.6002C8.34996 11.9413 8.6253 12.2167 8.96648 12.2167C9.30766 12.2167 9.583 11.9413 9.583 11.6002V10.7801H11.3607V11.6002C11.3607 11.9413 11.6361 12.2167 11.9773 12.2167C12.3184 12.2167 12.5938 11.9413 12.5938 11.6002V10.7801H14.3715V11.6002C14.3715 11.9413 14.6468 12.2167 14.988 12.2167C15.3292 12.2167 15.6046 11.9413 15.6046 11.6002V10.7801H17.3823V11.6002C17.3823 11.9413 17.6576 12.2167 17.9988 12.2167C18.34 12.2167 18.6153 11.9413 18.6153 11.6002V10.7801H20.3931V11.6002C20.3931 11.9413 20.6684 12.2167 21.0096 12.2167C21.3508 12.2167 21.6261 11.9413 21.6261 11.6002V10.7801H23.1943L24.6369 13.5934H5.33919ZM28.749 11.4804C28.749 12.6476 27.8033 13.5934 26.6361 13.5934H26.0255L24.1281 9.88228C24.0204 9.67877 23.8109 9.54709 23.5774 9.54709H6.40463C6.17119 9.54709 5.96169 9.67877 5.85395 9.88228L3.9565 13.5934H3.34597C2.17877 13.5934 1.23304 12.6417 1.23304 11.4804V3.34597C1.23304 2.17877 2.17877 1.23304 3.34597 1.23304H26.6301C27.7973 1.23304 28.743 2.17877 28.743 3.34597V11.4804H28.749Z" fill="#6783FE"/>
<path d="M16.155 3.60339H13.8206C13.4794 3.60339 13.2041 3.87873 13.2041 4.21991C13.2041 4.5611 13.4794 4.83643 13.8206 4.83643H16.155C16.4962 4.83643 16.7715 4.5611 16.7715 4.21991C16.7715 3.87873 16.4962 3.60339 16.155 3.60339Z" fill="#6783FE"/>
<path d="M16.8616 26.642L15.6106 27.893V18.4417C15.6106 18.1005 15.3353 17.8252 14.9941 17.8252C14.6529 17.8252 14.3776 18.1005 14.3776 18.4417V27.893L13.1266 26.642C12.8872 26.4026 12.4981 26.4026 12.2587 26.642C12.0192 26.8815 12.0192 27.2705 12.2587 27.5159L14.5631 29.8204C14.6829 29.9401 14.8445 30 15.0001 30C15.1557 30 15.3173 29.9401 15.437 29.8204L17.7415 27.5159C17.9809 27.2765 17.9809 26.8874 17.7415 26.642C17.4901 26.4026 17.101 26.4026 16.8616 26.642Z" fill="#6783FE"/>
<path d="M9.39139 22.3982L8.76888 23.0207V18.4477C8.76888 18.1065 8.49354 17.8312 8.15236 17.8312C7.81118 17.8312 7.53584 18.1065 7.53584 18.4477V23.0207L6.91334 22.3982C6.67391 22.1588 6.28484 22.1588 6.03943 22.3982C5.80001 22.6376 5.80001 23.0267 6.03943 23.2721L7.70942 24.9421C7.82914 25.0618 7.98476 25.1217 8.14638 25.1217C8.302 25.1217 8.46362 25.0618 8.58333 24.9421L10.2593 23.2721C10.4987 23.0327 10.4987 22.6436 10.2593 22.3982C10.0259 22.1588 9.63081 22.1588 9.39139 22.3982Z" fill="#6783FE"/>
<path d="M23.0628 22.3982L22.4403 23.0207V18.4477C22.4403 18.1065 22.1649 17.8312 21.8237 17.8312C21.4826 17.8312 21.2072 18.1065 21.2072 18.4477V23.0267L20.5847 22.4042C20.3453 22.1648 19.9562 22.1648 19.7108 22.4042C19.4714 22.6436 19.4714 23.0327 19.7108 23.2781L21.3808 24.9481C21.5005 25.0678 21.6562 25.1277 21.8178 25.1277C21.9734 25.1277 22.135 25.0678 22.2547 24.9481L23.9307 23.2781C24.1701 23.0387 24.1701 22.6496 23.9307 22.4042C23.6913 22.1588 23.3022 22.1588 23.0628 22.3982Z" fill="#6783FE"/>
</svg>
