<svg width="30" height="29" viewBox="0 0 30 29" fill="none" xmlns="http://www.w3.org/2000/svg">
<path d="M4.56423 23.2926H1.72191L3.23869 19.9359C3.39037 19.5929 3.23869 19.1907 2.90236 19.039C2.55944 18.8873 2.15716 19.039 2.00548 19.3753L0.0600476 23.6883C-0.0322782 23.8993 -0.0190888 24.1433 0.106211 24.3345C0.23151 24.5258 0.44254 24.6445 0.673355 24.6445H3.51567L1.99889 28.0012C1.84062 28.3441 1.99889 28.7464 2.33522 28.8981C2.42755 28.9376 2.51987 28.9574 2.6122 28.9574C2.86939 28.9574 3.11999 28.8057 3.2321 28.5551L5.17754 24.2422C5.26986 24.0312 5.25667 23.7872 5.13137 23.5959C5.01267 23.4113 4.79504 23.2926 4.56423 23.2926Z" fill="#6783FE"/>
<path d="M29.3271 5.01857H27.1442V0.679254C27.1442 0.303356 26.8409 0 26.465 0C26.0891 0 25.7857 0.303356 25.7857 0.679254V5.01857H20.9848V0.679254C20.9848 0.303356 20.6814 0 20.3055 0C19.9296 0 19.6263 0.303356 19.6263 0.679254V5.01857H17.4434C17.0675 5.01857 16.7642 5.32193 16.7642 5.69782V8.19722C16.7642 8.36868 16.8301 8.53355 16.9422 8.65884L20.3978 12.431V15.214C20.3978 15.5899 20.7012 15.8932 21.0771 15.8932H25.6868C26.0627 15.8932 26.366 15.5899 26.366 15.214V12.431L29.8217 8.65884C29.9338 8.53355 29.9997 8.36868 29.9997 8.19722V5.69782C30.0063 5.32193 29.703 5.01857 29.3271 5.01857ZM28.6478 7.92683L25.1922 11.699C25.0801 11.8243 25.0141 11.9892 25.0141 12.1606V14.5281H21.7629V12.1606C21.7629 11.9892 21.697 11.8243 21.5849 11.699L18.1293 7.92683V6.37708H28.6478V7.92683Z" fill="#6783FE"/>
<path d="M24.3288 7.94666H22.4493C22.0734 7.94666 21.77 8.25001 21.77 8.62591C21.77 9.00181 22.0734 9.30516 22.4493 9.30516H24.3288C24.7047 9.30516 25.008 9.00181 25.008 8.62591C25.008 8.25001 24.7047 7.94666 24.3288 7.94666Z" fill="#6783FE"/>
<path d="M24.3284 17.1726H22.4489C22.073 17.1726 21.7696 17.476 21.7696 17.8519C21.7696 18.2278 22.073 18.5311 22.4489 18.5311H22.7061V23.0946C22.7061 25.5809 20.6815 27.612 18.1953 27.612C15.7025 27.612 13.6779 25.5874 13.6779 23.0946V16.0779C14.2978 15.8141 14.7331 15.2008 14.7331 14.482C14.7331 13.7631 14.2978 13.1498 13.6779 12.886V5.86929C13.6779 2.63129 11.0467 0 7.80866 0C4.57726 0 1.93938 2.63129 1.93938 5.86929V16.0449H1.68218C1.30629 16.0449 1.00293 16.3483 1.00293 16.7242C1.00293 17.1001 1.30629 17.4034 1.68218 17.4034H3.55508C3.93098 17.4034 4.23433 17.1001 4.23433 16.7242C4.23433 16.3483 3.93098 16.0449 3.55508 16.0449H3.29789V5.86929C3.29789 3.37649 5.32246 1.35191 7.81526 1.35191C10.3015 1.35191 12.326 3.37649 12.326 5.86929V12.886C11.7061 13.1498 11.2709 13.7697 11.2709 14.482C11.2709 15.2008 11.7061 15.8141 12.326 16.0779V23.0946C12.326 26.3326 14.9573 28.9639 18.1953 28.9639C19.7649 28.9639 21.2355 28.3506 22.3434 27.2427C23.4513 26.1348 24.0646 24.6576 24.0646 23.0881V18.5245H24.3218C24.6977 18.5245 25.0011 18.2212 25.0011 17.8453C25.0076 17.476 24.7043 17.1726 24.3284 17.1726Z" fill="#6783FE"/>
</svg>
